<svg width="24" height="25" viewBox="0 0 24 25" fill="none" xmlns="http://www.w3.org/2000/svg">
<path d="M20.6256 2.72583H3.37561C2.96077 2.72583 2.62561 3.06099 2.62561 3.47583V20.7258C2.62561 21.1407 2.96077 21.4758 3.37561 21.4758H20.6256C21.0405 21.4758 21.3756 21.1407 21.3756 20.7258V3.47583C21.3756 3.06099 21.0405 2.72583 20.6256 2.72583ZM18.46 8.19849H16.9623C15.7881 8.19849 15.5608 8.7563 15.5608 9.57661V11.3836H18.3639L17.9983 14.2125H15.5608V21.4758H12.6381V14.2149H10.1936V11.3836H12.6381V9.2977C12.6381 6.87661 14.117 5.55708 16.278 5.55708C17.3139 5.55708 18.2022 5.63442 18.4623 5.66958V8.19849H18.46Z" fill="#67E8F9"/>
</svg>
