<svg width="25" height="25" viewBox="0 0 25 25" fill="none" xmlns="http://www.w3.org/2000/svg">
<path d="M12.4999 6.60331C9.45972 6.60331 7.00615 9.05688 7.00615 12.0971C7.00615 15.1372 9.45972 17.5908 12.4999 17.5908C15.5401 17.5908 17.9937 15.1372 17.9937 12.0971C17.9937 9.05688 15.5401 6.60331 12.4999 6.60331ZM12.4999 15.6676C10.5338 15.6676 8.92937 14.0631 8.92937 12.0971C8.92937 10.131 10.5338 8.52653 12.4999 8.52653C14.466 8.52653 16.0704 10.131 16.0704 12.0971C16.0704 14.0631 14.466 15.6676 12.4999 15.6676ZM18.2187 5.09795C17.5088 5.09795 16.9356 5.67117 16.9356 6.38099C16.9356 7.09081 17.5088 7.66403 18.2187 7.66403C18.9285 7.66403 19.5017 7.09349 19.5017 6.38099C19.5019 6.21244 19.4689 6.0455 19.4045 5.88974C19.34 5.73398 19.2456 5.59246 19.1264 5.47327C19.0072 5.35409 18.8657 5.25959 18.7099 5.19519C18.5541 5.13078 18.3872 5.09774 18.2187 5.09795ZM23.2088 12.0971C23.2088 10.6185 23.2222 9.15331 23.1392 7.67742C23.0562 5.96313 22.6651 4.4417 21.4115 3.18813C20.1553 1.93188 18.6365 1.54349 16.9222 1.46045C15.4437 1.37742 13.9785 1.39081 12.5026 1.39081C11.024 1.39081 9.55883 1.37742 8.08294 1.46045C6.36865 1.54349 4.84722 1.93456 3.59365 3.18813C2.3374 4.44438 1.94901 5.96313 1.86597 7.67742C1.78294 9.15599 1.79633 10.6212 1.79633 12.0971C1.79633 13.573 1.78294 15.0408 1.86597 16.5167C1.94901 18.231 2.34008 19.7524 3.59365 21.006C4.8499 22.2622 6.36865 22.6506 8.08294 22.7337C9.56151 22.8167 11.0267 22.8033 12.5026 22.8033C13.9812 22.8033 15.4463 22.8167 16.9222 22.7337C18.6365 22.6506 20.1579 22.2596 21.4115 21.006C22.6678 19.7497 23.0562 18.231 23.1392 16.5167C23.2249 15.0408 23.2088 13.5756 23.2088 12.0971ZM20.8517 18.4131C20.6562 18.9006 20.4204 19.2649 20.0428 19.6399C19.6651 20.0176 19.3035 20.2533 18.816 20.4488C17.407 21.0087 14.0615 20.8828 12.4999 20.8828C10.9383 20.8828 7.59008 21.0087 6.18115 20.4515C5.69365 20.256 5.32937 20.0203 4.95437 19.6426C4.57669 19.2649 4.34097 18.9033 4.14544 18.4158C3.58829 17.0042 3.71419 13.6587 3.71419 12.0971C3.71419 10.5355 3.58829 7.18724 4.14544 5.77831C4.34097 5.29081 4.57669 4.92653 4.95437 4.55153C5.33204 4.17653 5.69365 3.93813 6.18115 3.7426C7.59008 3.18545 10.9383 3.31135 12.4999 3.31135C14.0615 3.31135 17.4097 3.18545 18.8187 3.7426C19.3062 3.93813 19.6704 4.17385 20.0454 4.55153C20.4231 4.9292 20.6588 5.29081 20.8544 5.77831C21.4115 7.18724 21.2856 10.5355 21.2856 12.0971C21.2856 13.6587 21.4115 17.0042 20.8517 18.4131Z" fill="#67E8F9"/>
</svg>
